<?xml version="1.0" encoding="UTF-8"?>
<svg xmlns="http://www.w3.org/2000/svg" xmlns:xlink="http://www.w3.org/1999/xlink" width="2542.22" height="3304.93" viewBox="0 0 2542.22 3304.93">
<defs>
<clipPath id="clip-0">
<path clip-rule="nonzero" d="M 0 0 L 2542 0 L 2542 3304.929688 L 0 3304.929688 Z M 0 0 "/>
</clipPath>
<clipPath id="clip-1">
<path clip-rule="nonzero" d="M 1909 1 L 2542.21875 1 L 2542.21875 635 L 1909 635 Z M 1909 1 "/>
</clipPath>
<clipPath id="clip-2">
<path clip-rule="nonzero" d="M 115 118 L 2423 118 L 2423 3190 L 115 3190 Z M 115 118 "/>
</clipPath>
<clipPath id="clip-3">
<path clip-rule="evenodd" d="M 1629.609375 2404.078125 C 1608.101562 2379.859375 1613.449219 2342.230469 1637.671875 2323.390625 L 2127.101562 1911.96875 L 1637.671875 1497.851562 C 1613.449219 1476.339844 1610.769531 1441.378906 1629.609375 1417.171875 C 1651.121094 1392.96875 1686.078125 1390.28125 1710.269531 1409.109375 L 2253.488281 1866.238281 C 2266.941406 1877.011719 2275 1893.140625 2275 1911.96875 C 2275 1930.78125 2266.941406 1944.230469 2253.488281 1957.671875 L 1710.269531 2414.820312 C 1702.199219 2420.210938 1688.761719 2425.589844 1675.308594 2425.589844 C 1659.179688 2425.589844 1643.03125 2417.53125 1629.609375 2404.078125 Z M 957.320312 2522.410156 L 1473.621094 1253.128906 C 1484.390625 1223.558594 1519.339844 1210.109375 1548.921875 1220.871094 C 1578.5 1231.621094 1591.941406 1266.578125 1581.199219 1296.160156 L 1067.578125 2568.109375 C 1056.828125 2589.621094 1035.308594 2603.070312 1011.109375 2603.070312 C 1003.050781 2603.070312 997.664062 2600.390625 989.597656 2597.679688 C 960.011719 2586.941406 946.5625 2551.980469 957.320312 2522.410156 Z M 115.632812 118.320312 L 115.632812 3189.308594 L 2422.898438 3189.308594 L 2422.898438 634.640625 L 1965.75 634.640625 C 1949.601562 634.640625 1936.148438 629.261719 1925.410156 618.511719 C 1914.640625 607.75 1909.28125 591.609375 1909.28125 578.171875 L 1909.28125 118.320312 Z M 285.042969 1863.570312 L 828.25 1406.421875 C 852.441406 1384.910156 890.105469 1390.289062 908.925781 1414.488281 C 930.4375 1438.679688 925.050781 1476.339844 900.863281 1495.171875 L 411.433594 1911.96875 L 900.847656 2323.390625 C 925.050781 2344.898438 927.746094 2379.859375 908.910156 2404.078125 C 898.15625 2417.53125 882.03125 2425.589844 865.902344 2425.589844 C 852.441406 2425.589844 839.007812 2420.210938 828.25 2412.140625 L 285.042969 1955 C 271.597656 1944.230469 263.53125 1928.101562 263.53125 1909.269531 C 263.53125 1890.460938 271.597656 1877.011719 285.042969 1863.570312 "/>
</clipPath>
<linearGradient id="linear-pattern-0" gradientUnits="userSpaceOnUse" x1="-0.0000000581803" y1="0" x2="0.999999" y2="0" gradientTransform="matrix(-2307.27, 0.000201708, -0.000201708, -2307.27, 2422.9, 1653.82)">
<stop offset="0" stop-color="rgb(90.679932%, 91.20636%, 90.242004%)" stop-opacity="1"/>
<stop offset="0.015625" stop-color="rgb(90.480042%, 90.962219%, 89.978027%)" stop-opacity="1"/>
<stop offset="0.03125" stop-color="rgb(90.267944%, 90.527344%, 89.459229%)" stop-opacity="1"/>
<stop offset="0.046875" stop-color="rgb(90.071106%, 90.2771%, 89.187622%)" stop-opacity="1"/>
<stop offset="0.0625" stop-color="rgb(89.689636%, 89.984131%, 88.926697%)" stop-opacity="1"/>
<stop offset="0.078125" stop-color="rgb(89.291382%, 89.506531%, 88.418579%)" stop-opacity="1"/>
<stop offset="0.09375" stop-color="rgb(89.077759%, 89.245605%, 88.139343%)" stop-opacity="1"/>
<stop offset="0.109375" stop-color="rgb(88.882446%, 89.007568%, 87.886047%)" stop-opacity="1"/>
<stop offset="0.125" stop-color="rgb(88.674927%, 88.598633%, 87.402344%)" stop-opacity="1"/>
<stop offset="0.140625" stop-color="rgb(88.478088%, 88.334656%, 87.113953%)" stop-opacity="1"/>
<stop offset="0.15625" stop-color="rgb(88.117981%, 88.050842%, 86.857605%)" stop-opacity="1"/>
<stop offset="0.171875" stop-color="rgb(87.724304%, 87.602234%, 86.387634%)" stop-opacity="1"/>
<stop offset="0.1875" stop-color="rgb(87.486267%, 87.174988%, 86.029053%)" stop-opacity="1"/>
<stop offset="0.203125" stop-color="rgb(87.289429%, 86.903381%, 85.76355%)" stop-opacity="1"/>
<stop offset="0.21875" stop-color="rgb(86.943054%, 86.627197%, 85.508728%)" stop-opacity="1"/>
<stop offset="0.234375" stop-color="rgb(86.552429%, 86.199951%, 85.198975%)" stop-opacity="1"/>
<stop offset="0.25" stop-color="rgb(86.303711%, 85.769653%, 84.742737%)" stop-opacity="1"/>
<stop offset="0.265625" stop-color="rgb(86.108398%, 85.488892%, 84.431458%)" stop-opacity="1"/>
<stop offset="0.28125" stop-color="rgb(85.774231%, 85.220337%, 84.185791%)" stop-opacity="1"/>
<stop offset="0.296875" stop-color="rgb(85.388184%, 84.803772%, 83.760071%)" stop-opacity="1"/>
<stop offset="0.3125" stop-color="rgb(84.999084%, 84.344482%, 83.389282%)" stop-opacity="1"/>
<stop offset="0.328125" stop-color="rgb(84.614563%, 84.005737%, 83.122253%)" stop-opacity="1"/>
<stop offset="0.34375" stop-color="rgb(84.234619%, 83.72345%, 82.762146%)" stop-opacity="1"/>
<stop offset="0.359375" stop-color="rgb(83.970642%, 83.358765%, 82.414246%)" stop-opacity="1"/>
<stop offset="0.375" stop-color="rgb(83.773804%, 82.957458%, 82.104492%)" stop-opacity="1"/>
<stop offset="0.390625" stop-color="rgb(83.460999%, 82.627869%, 81.730652%)" stop-opacity="1"/>
<stop offset="0.40625" stop-color="rgb(83.19397%, 82.380676%, 81.42395%)" stop-opacity="1"/>
<stop offset="0.421875" stop-color="rgb(83.000183%, 82.051086%, 81.14624%)" stop-opacity="1"/>
<stop offset="0.4375" stop-color="rgb(82.695007%, 81.620789%, 80.741882%)" stop-opacity="1"/>
<stop offset="0.453125" stop-color="rgb(82.312012%, 81.169128%, 80.270386%)" stop-opacity="1"/>
<stop offset="0.46875" stop-color="rgb(81.929016%, 80.723572%, 79.888916%)" stop-opacity="1"/>
<stop offset="0.484375" stop-color="rgb(81.547546%, 80.281067%, 79.588318%)" stop-opacity="1"/>
<stop offset="0.5" stop-color="rgb(81.166077%, 79.838562%, 79.202271%)" stop-opacity="1"/>
<stop offset="0.515625" stop-color="rgb(80.786133%, 79.394531%, 78.739929%)" stop-opacity="1"/>
<stop offset="0.53125" stop-color="rgb(80.409241%, 79.032898%, 78.312683%)" stop-opacity="1"/>
<stop offset="0.546875" stop-color="rgb(80.12085%, 78.788757%, 77.996826%)" stop-opacity="1"/>
<stop offset="0.5625" stop-color="rgb(79.931641%, 78.492737%, 77.738953%)" stop-opacity="1"/>
<stop offset="0.578125" stop-color="rgb(79.658508%, 78.082275%, 77.375793%)" stop-opacity="1"/>
<stop offset="0.59375" stop-color="rgb(79.281616%, 77.6474%, 76.922607%)" stop-opacity="1"/>
<stop offset="0.609375" stop-color="rgb(78.904724%, 77.21405%, 76.53656%)" stop-opacity="1"/>
<stop offset="0.625" stop-color="rgb(78.530884%, 76.849365%, 76.275635%)" stop-opacity="1"/>
<stop offset="0.640625" stop-color="rgb(78.160095%, 76.591492%, 75.996399%)" stop-opacity="1"/>
<stop offset="0.65625" stop-color="rgb(77.853394%, 76.283264%, 75.593567%)" stop-opacity="1"/>
<stop offset="0.671875" stop-color="rgb(77.66571%, 75.900269%, 75.201416%)" stop-opacity="1"/>
<stop offset="0.6875" stop-color="rgb(77.415466%, 75.508118%, 74.920654%)" stop-opacity="1"/>
<stop offset="0.703125" stop-color="rgb(77.044678%, 75.135803%, 74.610901%)" stop-opacity="1"/>
<stop offset="0.71875" stop-color="rgb(76.675415%, 74.879456%, 74.240112%)" stop-opacity="1"/>
<stop offset="0.734375" stop-color="rgb(76.307678%, 74.577332%, 73.893738%)" stop-opacity="1"/>
<stop offset="0.75" stop-color="rgb(75.984192%, 74.171448%, 73.61908%)" stop-opacity="1"/>
<stop offset="0.765625" stop-color="rgb(75.799561%, 73.797607%, 73.303223%)" stop-opacity="1"/>
<stop offset="0.78125" stop-color="rgb(75.570679%, 73.41156%, 72.872925%)" stop-opacity="1"/>
<stop offset="0.796875" stop-color="rgb(75.202942%, 73.03009%, 72.491455%)" stop-opacity="1"/>
<stop offset="0.8125" stop-color="rgb(74.836731%, 72.784424%, 72.286987%)" stop-opacity="1"/>
<stop offset="0.828125" stop-color="rgb(74.472046%, 72.506714%, 72.039795%)" stop-opacity="1"/>
<stop offset="0.84375" stop-color="rgb(74.105835%, 72.094727%, 71.620178%)" stop-opacity="1"/>
<stop offset="0.859375" stop-color="rgb(73.76709%, 71.691895%, 71.22345%)" stop-opacity="1"/>
<stop offset="0.875" stop-color="rgb(73.587036%, 71.348572%, 70.965576%)" stop-opacity="1"/>
<stop offset="0.890625" stop-color="rgb(73.382568%, 71.141052%, 70.741272%)" stop-opacity="1"/>
<stop offset="0.90625" stop-color="rgb(73.019409%, 70.880127%, 70.38269%)" stop-opacity="1"/>
<stop offset="0.921875" stop-color="rgb(72.657776%, 70.475769%, 69.984436%)" stop-opacity="1"/>
<stop offset="0.9375" stop-color="rgb(72.296143%, 70.075989%, 69.728088%)" stop-opacity="1"/>
<stop offset="0.953125" stop-color="rgb(71.943665%, 69.680786%, 69.462585%)" stop-opacity="1"/>
<stop offset="0.96875" stop-color="rgb(71.765137%, 69.320679%, 69.052124%)" stop-opacity="1"/>
<stop offset="0.984375" stop-color="rgb(71.582031%, 68.962097%, 68.64624%)" stop-opacity="1"/>
<stop offset="1" stop-color="rgb(71.22345%, 68.727112%, 68.305969%)" stop-opacity="1"/>
</linearGradient>
<clipPath id="clip-4">
<path clip-rule="nonzero" d="M 2024 199 L 2345 199 L 2345 519 L 2024 519 Z M 2024 199 "/>
</clipPath>
<clipPath id="clip-5">
<path clip-rule="evenodd" d="M 2024.898438 199 L 2024.898438 519 L 2344.921875 519 Z M 2024.898438 199 "/>
</clipPath>
<linearGradient id="linear-pattern-1" gradientUnits="userSpaceOnUse" x1="0.250002" y1="0" x2="0.750006" y2="0" gradientTransform="matrix(-640.035, 0.00005595, -0.00005595, -640.035, 2504.93, 359)">
<stop offset="0" stop-color="rgb(86.250305%, 85.574341%, 84.495544%)" stop-opacity="1"/>
<stop offset="0.03125" stop-color="rgb(86.108398%, 85.488892%, 84.431458%)" stop-opacity="1"/>
<stop offset="0.0625" stop-color="rgb(85.774231%, 85.220337%, 84.185791%)" stop-opacity="1"/>
<stop offset="0.09375" stop-color="rgb(85.388184%, 84.803772%, 83.760071%)" stop-opacity="1"/>
<stop offset="0.125" stop-color="rgb(84.999084%, 84.344482%, 83.389282%)" stop-opacity="1"/>
<stop offset="0.15625" stop-color="rgb(84.614563%, 84.005737%, 83.122253%)" stop-opacity="1"/>
<stop offset="0.1875" stop-color="rgb(84.234619%, 83.72345%, 82.762146%)" stop-opacity="1"/>
<stop offset="0.21875" stop-color="rgb(83.970642%, 83.358765%, 82.414246%)" stop-opacity="1"/>
<stop offset="0.25" stop-color="rgb(83.773804%, 82.957458%, 82.104492%)" stop-opacity="1"/>
<stop offset="0.28125" stop-color="rgb(83.460999%, 82.627869%, 81.730652%)" stop-opacity="1"/>
<stop offset="0.3125" stop-color="rgb(83.19397%, 82.380676%, 81.42395%)" stop-opacity="1"/>
<stop offset="0.34375" stop-color="rgb(83.000183%, 82.051086%, 81.14624%)" stop-opacity="1"/>
<stop offset="0.375" stop-color="rgb(82.695007%, 81.620789%, 80.741882%)" stop-opacity="1"/>
<stop offset="0.40625" stop-color="rgb(82.312012%, 81.169128%, 80.270386%)" stop-opacity="1"/>
<stop offset="0.4375" stop-color="rgb(81.929016%, 80.723572%, 79.888916%)" stop-opacity="1"/>
<stop offset="0.46875" stop-color="rgb(81.547546%, 80.281067%, 79.588318%)" stop-opacity="1"/>
<stop offset="0.5" stop-color="rgb(81.166077%, 79.838562%, 79.202271%)" stop-opacity="1"/>
<stop offset="0.53125" stop-color="rgb(80.786133%, 79.394531%, 78.739929%)" stop-opacity="1"/>
<stop offset="0.5625" stop-color="rgb(80.409241%, 79.032898%, 78.312683%)" stop-opacity="1"/>
<stop offset="0.59375" stop-color="rgb(80.12085%, 78.788757%, 77.996826%)" stop-opacity="1"/>
<stop offset="0.625" stop-color="rgb(79.931641%, 78.492737%, 77.738953%)" stop-opacity="1"/>
<stop offset="0.65625" stop-color="rgb(79.658508%, 78.082275%, 77.375793%)" stop-opacity="1"/>
<stop offset="0.6875" stop-color="rgb(79.281616%, 77.6474%, 76.922607%)" stop-opacity="1"/>
<stop offset="0.71875" stop-color="rgb(78.904724%, 77.21405%, 76.53656%)" stop-opacity="1"/>
<stop offset="0.75" stop-color="rgb(78.530884%, 76.849365%, 76.275635%)" stop-opacity="1"/>
<stop offset="0.78125" stop-color="rgb(78.160095%, 76.591492%, 75.996399%)" stop-opacity="1"/>
<stop offset="0.8125" stop-color="rgb(77.853394%, 76.283264%, 75.593567%)" stop-opacity="1"/>
<stop offset="0.84375" stop-color="rgb(77.66571%, 75.900269%, 75.201416%)" stop-opacity="1"/>
<stop offset="0.875" stop-color="rgb(77.415466%, 75.508118%, 74.920654%)" stop-opacity="1"/>
<stop offset="0.90625" stop-color="rgb(77.044678%, 75.135803%, 74.610901%)" stop-opacity="1"/>
<stop offset="0.9375" stop-color="rgb(76.675415%, 74.879456%, 74.240112%)" stop-opacity="1"/>
<stop offset="0.96875" stop-color="rgb(76.307678%, 74.577332%, 73.893738%)" stop-opacity="1"/>
<stop offset="1" stop-color="rgb(75.984192%, 74.171448%, 73.61908%)" stop-opacity="1"/>
</linearGradient>
</defs>
<g clip-path="url(#clip-0)">
<path fill-rule="evenodd" fill="rgb(18.066406%, 17.614746%, 17.69104%)" fill-opacity="1" d="M 2482.050781 3304.929688 L 59.164062 3304.929688 C 26.882812 3304.929688 0 3278.03125 0 3245.78125 L 0 59.160156 C 0 26.898438 26.882812 0 59.164062 0 L 1965.75 0 C 1998 0 2024.898438 26.898438 2024.898438 59.160156 C 2024.898438 91.441406 1998 118.320312 1965.75 118.320312 L 115.632812 118.320312 L 115.632812 3189.308594 L 2422.898438 3189.308594 L 2422.898438 575.46875 C 2422.898438 543.210938 2449.769531 516.308594 2482.050781 516.308594 C 2514.328125 516.308594 2541.21875 543.210938 2541.21875 575.46875 L 2541.21875 3245.78125 C 2541.21875 3278.03125 2514.328125 3304.929688 2482.050781 3304.929688 "/>
</g>
<g clip-path="url(#clip-1)">
<path fill-rule="evenodd" fill="rgb(18.066406%, 17.614746%, 17.69104%)" fill-opacity="1" d="M 2024.898438 199 L 2024.898438 519 L 2344.921875 519 Z M 1965.75 634.640625 C 1949.601562 634.640625 1936.148438 629.261719 1925.410156 618.511719 C 1914.640625 607.75 1909.28125 591.609375 1909.28125 578.171875 L 1909.28125 59.160156 C 1909.28125 34.96875 1922.730469 13.449219 1944.210938 5.378906 C 1965.75 -2.679688 1989.941406 2.691406 2008.769531 18.828125 L 2525.070312 535.140625 C 2541.199219 551.28125 2546.578125 575.488281 2538.519531 599.691406 C 2530.460938 623.878906 2508.941406 634.640625 2484.75 634.640625 L 1965.75 634.640625 "/>
</g>
<path fill-rule="evenodd" fill="rgb(18.066406%, 17.614746%, 17.69104%)" fill-opacity="1" d="M 865.902344 2425.589844 C 852.441406 2425.589844 839.007812 2420.210938 828.25 2412.140625 L 285.042969 1955 C 271.597656 1944.230469 263.53125 1928.101562 263.53125 1909.269531 C 263.53125 1890.460938 271.597656 1877.011719 285.042969 1863.570312 L 828.25 1406.421875 C 852.441406 1384.910156 890.105469 1390.289062 908.925781 1414.488281 C 930.4375 1438.679688 925.050781 1476.339844 900.863281 1495.171875 L 411.433594 1911.96875 L 900.847656 2323.390625 C 925.050781 2344.898438 927.746094 2379.859375 908.910156 2404.078125 C 898.15625 2417.53125 882.03125 2425.589844 865.902344 2425.589844 "/>
<path fill-rule="evenodd" fill="rgb(18.066406%, 17.614746%, 17.69104%)" fill-opacity="1" d="M 1675.308594 2425.589844 C 1659.179688 2425.589844 1643.03125 2417.53125 1629.609375 2404.078125 C 1608.101562 2379.859375 1613.449219 2342.230469 1637.671875 2323.390625 L 2127.101562 1911.96875 L 1637.671875 1497.851562 C 1613.449219 1476.339844 1610.769531 1441.378906 1629.609375 1417.171875 C 1651.121094 1392.96875 1686.078125 1390.28125 1710.269531 1409.109375 L 2253.488281 1866.238281 C 2266.941406 1877.011719 2275 1893.140625 2275 1911.96875 C 2275 1930.78125 2266.941406 1944.230469 2253.488281 1957.671875 L 1710.269531 2414.820312 C 1702.199219 2420.210938 1688.761719 2425.589844 1675.308594 2425.589844 "/>
<path fill-rule="evenodd" fill="rgb(18.066406%, 17.614746%, 17.69104%)" fill-opacity="1" d="M 1011.109375 2603.070312 C 1003.050781 2603.070312 997.664062 2600.390625 989.597656 2597.679688 C 960.011719 2586.941406 946.5625 2551.980469 957.320312 2522.410156 L 1473.621094 1253.128906 C 1484.390625 1223.558594 1519.339844 1210.109375 1548.921875 1220.871094 C 1578.5 1231.621094 1591.941406 1266.578125 1581.199219 1296.160156 L 1067.578125 2568.109375 C 1056.828125 2589.621094 1035.308594 2603.070312 1011.109375 2603.070312 "/>
<g clip-path="url(#clip-2)">
<g clip-path="url(#clip-3)">
<path fill-rule="nonzero" fill="url(#linear-pattern-0)" d="M 2422.898438 3189.308594 L 2422.898438 118.320312 L 115.632812 118.320312 L 115.632812 3189.308594 Z M 2422.898438 3189.308594 "/>
</g>
</g>
<g clip-path="url(#clip-4)">
<g clip-path="url(#clip-5)">
<path fill-rule="nonzero" fill="url(#linear-pattern-1)" d="M 2344.921875 519 L 2344.921875 199 L 2024.898438 199 L 2024.898438 519 Z M 2344.921875 519 "/>
</g>
</g>
</svg>
